# xmcd CD database file
#
# Track frame offsets:
#	150
#	15272
#	28950
#	38155
#	54267
#	67380
#	78755
#	91637
#	104687
#	116542
#	130902
#	143822
#	160552
#	174742
#	192725
#	206575
#
# Disc length: 2939 seconds
#
# Revision: 0
# Processed by: cddbd v1.5.2PL0 Copyright (c) Steve Scherf et al.
# Submitted via: CDex 1.70beta2
#
DISCID=d80b7910
DTITLE=Various Artist - My Heroes have always been Cowboys
DYEAR=1900
DGENRE=Country
TTITLE0=The Last Round up - Gene Autry
TTITLE1=My heroes have always been Cowboys/ Willie Nelson
TTITLE2=Rawhide - Frankie Lane
TTITLE3=Ride 'em Cowboy - David Allan Coe
TTITLE4=The Shifting, Whispering Sands Part 1 - Johnny Cash
TTITLE5=The Shifting, Whispering Sands Part 2 - Johnny Cash
TTITLE6=Tumbling Tumbleweeds/ Marty Robbins
TTITLE7=There's nobody home on hte range anymore - Moe Bandy
TTITLE8=Old Pioneer - Roy Rogers
TTITLE9=An American Cowboy - Merle Haggard
TTITLE10=Yippy Cry Yi - Moe Bandy
TTITLE11=(We Are) The Cowboys - Billy Joe Shaver
TTITLE12=The Master's Call - Marty Robbins
TTITLE13=Red Headed Stranger - Willie Nelson
TTITLE14=Back in the Saddle Again - Sonny James
TTITLE15=The Last Cowboy Song - Jennings, Nelson, Cash, Kristofferson
EXTD=
EXTT0=
EXTT1=
EXTT2=
EXTT3=
EXTT4=
EXTT5=
EXTT6=
EXTT7=
EXTT8=
EXTT9=
EXTT10=
EXTT11=
EXTT12=
EXTT13=
EXTT14=
EXTT15=
PLAYORDER=
